<?xml version="1.0" encoding="UTF-8"?>
<svg width="120px" height="33px" viewBox="0 0 120 33" version="1.1" xmlns="http://www.w3.org/2000/svg" xmlns:xlink="http://www.w3.org/1999/xlink">
    <!-- Generator: sketchtool 55.1 (78136) - https://sketchapp.com -->
    <title>A015487F-2391-4871-8724-2B5E27A76391</title>
    <desc>Created with sketchtool.</desc>
    <g id="🗄-Dock" stroke="none" stroke-width="1" fill="none" fill-rule="evenodd">
        <g id="test-front-dev" transform="translate(-120.000000, -29.000000)" fill="#FFFFFF">
            <g id="logos/station-logo-white" transform="translate(100.000000, 8.749999)">
                <g id="logo-station-white-copy" transform="translate(20.400000, 20.400000)">
                    <g id="logo-station-white">
                        <path d="M16.3373134,11.8405258 C16.3373134,8.10556052 13.1390731,5.62828761 8.77074494,5.62828761 C4.05139038,5.62828761 0.775144239,7.87688917 0.775144239,11.5737426 C0.775144239,15.2324841 3.89537866,16.4901765 7.83467462,17.1380787 C12.7100409,17.9384284 13.6851142,18.5863305 13.7241171,20.1108062 C13.76312,22.0545126 11.4619471,23.0835337 8.41971857,23.0835337 C4.55842847,23.0835337 3.38834057,21.216051 3.27133178,19.6153516 L0.229103216,19.6153516 C0.580129588,22.7405266 2.29625852,25.751366 8.49772443,25.751366 C14.5821816,25.751366 16.7663456,22.7405266 16.7663456,19.9583586 C16.7663456,16.4901765 13.9191317,15.3087079 8.92675666,14.5083582 C5.29948415,13.9366798 3.8173728,13.0982182 3.8173728,11.2688475 C3.8173728,9.4394767 5.72851638,8.29611997 8.49772443,8.29611997 C11.9299823,8.29611997 13.1390731,10.0873788 13.2950849,11.8405258 L16.3373134,11.8405258 Z M19.8998016,8.04054152 L23.6105015,8.04054152 L23.6105015,20.9897419 C23.6105015,24.8885882 24.8873015,25.9022882 27.5606014,25.9022882 C28.5182014,25.9022882 29.5955013,25.8632998 30.7127013,25.7853228 L30.7127013,23.0561305 C30.1142013,23.1341074 29.3561013,23.1730958 28.6379014,23.1730958 C27.2414014,23.1730958 26.7227014,22.3933266 26.7227014,20.6388458 L26.7227014,8.04054152 L30.7526013,8.04054152 L30.7526013,5.5452799 L26.7227014,5.5452799 L26.7227014,0.481810511 L23.6105015,0.481810511 L23.6105015,5.5452799 L19.8998016,5.5452799 L19.8998016,8.04054152 Z M47.9096023,25.6683578 L47.9096023,23.0951192 L47.8298023,23.0951192 C46.4333023,25.512404 43.3489337,25.6683578 41.0347337,25.6683578 C36.2866336,25.6683578 33.9047022,23.4850039 33.9047022,20.4049153 C33.9047022,16.8179766 35.8997022,14.7125996 41.3660022,14.4396804 C43.5605023,14.322715 45.7151023,14.2057496 47.9096023,14.1277726 L47.9096023,12.646211 C47.9096023,10.1509494 46.8323023,8.12354927 42.8423023,8.12354927 C39.1715022,8.12354927 37.9745022,9.64409935 37.5755022,11.8274533 L34.5032022,11.8274533 C35.1416022,7.46074539 38.1740022,5.62828761 42.8822023,5.62828761 C48.2288023,5.62828761 51.0218023,8.00658388 51.0218023,12.1783495 L51.0218023,21.8474884 C51.0218023,23.0561308 51.1814023,24.5766809 51.3011023,25.6683578 L47.9096023,25.6683578 Z M47.9096005,18.2639238 L47.9096005,16.4280913 L42.6428008,16.662022 C39.2513011,16.8179759 37.2563012,17.7147105 37.2563012,20.2489606 C37.2563012,22.1983837 39.0261062,23.0082099 41.859006,23.0082099 C44.5722058,23.0082099 46.7717096,22.055477 47.9096005,18.2639238 Z M54.1237045,8.03070881 L57.8344043,8.03070881 L57.8344043,20.9897411 C57.8344043,24.8885873 59.0527988,25.6683565 61.7260987,25.6683565 C62.6836987,25.6683565 63.8194042,25.7463334 64.9366041,25.6683565 L64.9366041,23.0561296 C64.3381041,23.1341065 63.5800042,23.173095 62.8618042,23.173095 C61.4653042,23.173095 60.9466042,22.3933257 60.9466042,20.638845 L60.9466042,8.03070881 L64.9765041,8.03070881 L64.9765041,5.53544729 L60.9466042,5.53544729 L60.9466042,0.481810511 L57.8344043,0.481810511 L57.8344043,5.53544729 L54.1237045,5.53544729 L54.1237045,8.03070881 Z M116.284045,25.3187188 L116.284045,13.5442031 C116.284045,9.48940299 114.129445,8.24177218 111.895045,8.24177218 C108.985044,8.24177218 106.309045,10.0935103 106.388845,14.7548346 L106.388845,25.3187188 L103.196845,25.3187188 L103.196845,5.82448749 L106.309045,5.82448749 L106.309045,8.0381756 L106.388845,8.0381756 C108.028731,5.82448749 109.231841,5.44069333 111.895045,5.44069333 C115.940054,5.44069333 119.396245,6.72281659 119.396245,12.2185954 L119.396245,25.3187188 L116.284045,25.3187188 Z M70.7903208,5.54527997 L74.0080628,5.54527997 L74.0080628,25.6683584 L70.7903208,25.6683584 L70.7903208,5.54527997 Z" id="Combined-Shape"></path>
                        <path d="M88.8096784,25.6683585 C83.1229269,25.6683585 78.512904,21.1636539 78.512904,15.6068193 C78.512904,10.0499846 83.1229269,5.54528004 88.8096784,5.54528004 C94.4964298,5.54528004 99.1064527,10.0499846 99.1064527,15.6068193 C99.1064527,21.1636539 94.4964298,25.6683585 88.8096784,25.6683585 Z M88.8096778,22.6498962 C92.7904036,22.6498962 96.0174195,19.4966031 96.0174195,15.606819 C96.0174195,11.7170348 92.7904036,8.56374175 88.8096778,8.56374175 C84.828952,8.56374175 81.6019361,11.7170348 81.6019361,15.606819 C81.6019361,19.4966031 84.828952,22.6498962 88.8096778,22.6498962 Z M81.0870976,29.4414343 L96.5322586,29.4414343 L96.5322586,31.9568191 L81.0870976,31.9568191 L81.0870976,29.4414343 Z" id="Combined-Shape"></path>
                    </g>
                </g>
            </g>
        </g>
    </g>
</svg>